Coordinates
version=1
nRows=24
nColumns=24
inDegrees=yes

Units are S.I. units (second, meters, Newtons, ...)
Angles are in degrees.

endheader
time	pelvis_tilt	pelvis_list	pelvis_rotation	pelvis_tx	pelvis_ty	pelvis_tz	hip_flexion_r	hip_adduction_r	hip_rotation_r	knee_angle_r	ankle_angle_r	subtalar_angle_r	mtp_angle_r	hip_flexion_l	hip_adduction_l	hip_rotation_l	knee_angle_l	ankle_angle_l	subtalar_angle_l	mtp_angle_l	lumbar_extension	lumbar_bending	lumbar_rotation
      0.01000000	     60.56579041	     -0.90038480	     -4.62550429	      0.83060353	      1.06294475	     -0.23074477	     18.42948854	     -6.48823981	      4.12713599	    -14.00621649	     -3.50012482	     10.19711648	      0.00000000	      9.45987429	     -4.10891381	     -8.43568024	    -66.34772972	      0.98380401	     -4.57821575	      0.00000000	      0.00000000	      0.00000000	      0.00000000
      0.02000000	     60.56556351	     -0.90216449	     -4.61984205	      0.83063051	      1.06290571	     -0.23077441	     18.43311303	     -6.49154740	      4.13394260	    -13.99347408	     -3.50426559	     10.20658820	      0.00000000	      9.46477772	     -4.10976983	     -8.42416903	    -66.36023276	      0.98189349	     -4.58427968	      0.00000000	      0.00000000	      0.00000000	      0.00000000
      0.03000000	     60.56353125	     -0.90583114	     -4.61526368	      0.83065279	      1.06288406	     -0.23080510	     18.43764601	     -6.49439254	      4.13938953	    -13.98263775	     -3.50747151	     10.21535467	      0.00000000	      9.47111926	     -4.10988239	     -8.41399345	    -66.37066956	      0.97982121	     -4.58974484	      0.00000000	      0.00000000	      0.00000000	      0.00000000
      0.04000000	     60.56064956	     -0.90933571	     -4.61189667	      0.83066290	      1.06287258	     -0.23082385	     18.44314267	     -6.49593255	      4.14312531	    -13.97366068	     -3.50970576	     10.22272101	      0.00000000	      9.47784678	     -4.10967505	     -8.40583196	    -66.37792394	      0.97796656	     -4.59421165	      0.00000000	      0.00000000	      0.00000000	      0.00000000
      0.05000000	     60.55784262	     -0.91122576	     -4.60986712	      0.83066084	      1.06286257	     -0.23083212	     18.44904222	     -6.49579422	      4.14512475	    -13.96660888	     -3.51099487	     10.22802368	      0.00000000	      9.48367523	     -4.10943522	     -8.40030029	    -66.38120629	      0.97692324	     -4.59726407	      0.00000000	      0.00000000	      0.00000000	      0.00000000
      0.06000000	     60.55589615	     -0.91149429	     -4.60921155	      0.83065583	      1.06285083	     -0.23083840	     18.45437219	     -6.49468627	      4.14597685	    -13.96141278	     -3.51146633	     10.23101612	      0.00000000	      9.48735652	     -4.10925910	     -8.39761932	    -66.38068826	      0.97737996	     -4.59867359	      0.00000000	      0.00000000	      0.00000000	      0.00000000
      0.07000000	     60.55555905	     -0.91105907	     -4.60985487	      0.83065449	      1.06284231	     -0.23084564	     18.45826101	     -6.49398148	      4.14671361	    -13.95766166	     -3.51133777	     10.23208840	      0.00000000	      9.48793067	     -4.10918125	     -8.39751199	    -66.37753990	      0.97987710	     -4.59853142	      0.00000000	      0.00000000	      0.00000000	      0.00000000
      0.08000000	     60.55748365	     -0.91058141	     -4.61165705	      0.83065263	      1.06284234	     -0.23085202	     18.46017075	     -6.49457468	      4.14826794	    -13.95480523	     -3.51088033	     10.23223498	      0.00000000	      9.48503324	     -4.10922420	     -8.39935970	    -66.37335972	      0.98450252	     -4.59725393	      0.00000000	      0.00000000	      0.00000000	      0.00000000
      0.09000000	     60.56202635	     -0.90998292	     -4.61446743	      0.83064330	      1.06285030	     -0.23085472	     18.45992320	     -6.49632141	      4.15101306	    -13.95254067	     -3.51038774	     10.23279391	      0.00000000	      9.47910072	     -4.10935918	     -8.40241574	    -66.36941918	      0.99067134	     -4.59545864	      0.00000000	      0.00000000	      0.00000000	      0.00000000
      0.10000000	     60.56896049	     -0.90879467	     -4.61807655	      0.83062662	      1.06286130	     -0.23085129	     18.45777224	     -6.49838558	      4.15468747	    -13.95095749	     -3.51015815	     10.23506401	      0.00000000	      9.47118858	     -4.10950817	     -8.40588420	    -66.36624531	      0.99713825	     -4.59378907	      0.00000000	      0.00000000	      0.00000000	      0.00000000
      0.11000000	     60.57721396	     -0.90677984	     -4.62204407	      0.83060764	      1.06286937	     -0.23084078	     18.45445117	     -6.49989510	      4.15862454	    -13.95032307	     -3.51046857	     10.23991192	      0.00000000	      9.46250258	     -4.10950946	     -8.40897121	    -66.36374806	      1.00231825	     -4.59280870	      0.00000000	      0.00000000	      0.00000000	      0.00000000
      0.12000000	     60.58518951	     -0.90431862	     -4.62568321	      0.83059043	      1.06287110	     -0.23082374	     18.45104434	     -6.50046766	      4.16203634	    -13.95070677	     -3.51153197	     10.24745366	      0.00000000	      9.45425724	     -4.10915246	     -8.41098803	    -66.36156711	      1.00484693	     -4.59301334	      0.00000000	      0.00000000	      0.00000000	      0.00000000
      0.13000000	     60.59154621	     -0.90215563	     -4.62832680	      0.83057681	      1.06286789	     -0.23080527	     18.44865829	     -6.50039311	      4.16420591	    -13.95176069	     -3.51347264	     10.25691878	      0.00000000	      9.44780846	     -4.10847316	     -8.41145606	    -66.35933612	      1.00410496	     -4.59485183	      0.00000000	      0.00000000	      0.00000000	      0.00000000
      0.14000000	     60.59551710	     -0.90086090	     -4.62953709	      0.83056655	      1.06286259	     -0.23079411	     18.44801651	     -6.50033555	      4.16459184	    -13.95283097	     -3.51635995	     10.26681360	      0.00000000	      9.44431033	     -4.10782397	     -8.41030341	    -66.35697343	      1.00039958	     -4.59859882	      0.00000000	      0.00000000	      0.00000000	      0.00000000
      0.15000000	     60.59675330	     -0.90066775	     -4.62914376	      0.83055740	      1.06285753	     -0.23079305	     18.44921032	     -6.50078048	      4.16291314	    -13.95327718	     -3.52025711	     10.27538103	      0.00000000	      9.44406753	     -4.10739922	     -8.40803757	    -66.35491104	      0.99476408	     -4.60410659	      0.00000000	      0.00000000	      0.00000000	      0.00000000
      0.16000000	     60.59540021	     -0.90154121	     -4.62734858	      0.83055042	      1.06285554	     -0.23079889	     18.45175544	     -6.50174524	      4.15926122	    -13.95275494	     -3.52519664	     10.28117557	      0.00000000	      9.44642634	     -4.10701495	     -8.40552259	    -66.35388397	      0.98854713	     -4.61062146	      0.00000000	      0.00000000	      0.00000000	      0.00000000
      0.17000000	     60.59227680	     -0.90314146	     -4.62479059	      0.83055338	      1.06285742	     -0.23081092	     18.45484337	     -6.50288859	      4.15418016	    -13.95132393	     -3.53107988	     10.28351481	      0.00000000	      9.45025237	     -4.10650917	     -8.40349675	    -66.35437634	      0.98296983	     -4.61682091	      0.00000000	      0.00000000	      0.00000000	      0.00000000
      0.18000000	     60.58860128	     -0.90485234	     -4.62229134	      0.83056884	      1.06285952	     -0.23082876	     18.45763584	     -6.50374117	      4.14857413	    -13.94931955	     -3.53757414	     10.28264465	      0.00000000	      9.45443225	     -4.10609666	     -8.40235165	    -66.35624074	      0.97878780	     -4.62111048	      0.00000000	      0.00000000	      0.00000000	      0.00000000
      0.19000000	     60.58544339	     -0.90611818	     -4.62041979	      0.83058612	      1.06285745	     -0.23084552	     18.45960419	     -6.50392430	      4.14340252	    -13.94702569	     -3.54406867	     10.27958339	      0.00000000	      9.45815611	     -4.10625544	     -8.40226928	    -66.35875366	      0.97614998	     -4.62210886	      0.00000000	      0.00000000	      0.00000000	      0.00000000
      0.20000000	     60.58334711	     -0.90689266	     -4.61927610	      0.83059456	      1.06285091	     -0.23084973	     18.46082257	     -6.50334019	      4.13932023	    -13.94439805	     -3.54971808	     10.27574147	      0.00000000	      9.46100434	     -4.10734030	     -8.40336084	    -66.36100319	      0.97468262	     -4.61916425	      0.00000000	      0.00000000	      0.00000000	      0.00000000
      0.21000000	     60.58216073	     -0.90754569	     -4.61872305	      0.83059540	      1.06284414	     -0.23083791	     18.46185525	     -6.50219674	      4.13647013	    -13.94116093	     -3.55360008	     10.27248810	      0.00000000	      9.46293042	     -4.10939979	     -8.40555361	    -66.36231521	      0.97374509	     -4.61269981	      0.00000000	      0.00000000	      0.00000000	      0.00000000
      0.22000000	     60.58111888	     -0.90830224	     -4.61873958	      0.83059632	      1.06284295	     -0.23082419	     18.46326424	     -6.50080430	      4.13453753	    -13.93720999	     -3.55498526	     10.27083067	      0.00000000	      9.46421600	     -4.11221369	     -8.40847129	    -66.36246521	      0.97273282	     -4.60422550	      0.00000000	      0.00000000	      0.00000000	      0.00000000
      0.23000000	     60.57929212	     -0.90910227	     -4.61938860	      0.83060225	      1.06284982	     -0.23082663	     18.46534925	     -6.49935977	      4.13302879	    -13.93282756	     -3.55360538	     10.27129130	      0.00000000	      9.46526656	     -4.11517392	     -8.41162549	    -66.36162899	      0.97128975	     -4.59597158	      0.00000000	      0.00000000	      0.00000000	      0.00000000
      0.24000000	     60.57615424	     -0.90999886	     -4.62055014	      0.83061280	      1.06285927	     -0.23084309	     18.46822692	     -6.49792793	      4.13160882	    -13.92853508	     -3.54977109	     10.27395983	      0.00000000	      9.46634560	     -4.11717772	     -8.41472931	    -66.36014977	      0.96935302	     -4.59023555	      0.00000000	      0.00000000	      0.00000000	      0.00000000
